<svg width="451px" height="450px" viewBox="0 0 451 450" version="1.1" xmlns="http://www.w3.org/2000/svg" xmlns:xlink="http://www.w3.org/1999/xlink">
    <g fill="#000000">
        <path d="M226,0 C102.7,0 1.8,100.3 1,223.6 C0.6,283.7 23.7,340.4 65.9,383.1 C108.1,425.9 164.5,449.6 224.6,450 C224.6,450 226,450 226.1,450 C349.4,450 450.3,349.7 451.1,226.4 C451.8,102.4 351.5,0.8 226,0 Z M226,419.7 L224.7,419.7 C172.7,419.4 124,398.8 87.4,361.8 C50.9,324.8 30.9,275.8 31.3,223.8 C32,117.1 119.3,30.4 227.2,30.4 C334.5,31.1 421.3,119 420.6,226.3 C420,332.9 332.7,419.7 226,419.7 Z"></path>
        <path d="M336,129.2 L116,129.2 C108,129.2 101.5,135.7 101.5,143.7 C101.5,151.7 108,158.2 116,158.2 L336,158.2 C344,158.2 350.5,151.7 350.5,143.7 C350.5,135.7 344,129.2 336,129.2 Z"></path>
        <path d="M336,210.5 L116,210.5 C108,210.5 101.5,217 101.5,225 C101.5,233 108,239.5 116,239.5 L336,239.5 C344,239.5 350.5,233 350.5,225 C350.5,217 344,210.5 336,210.5 Z"></path>
        <path d="M336,291.7 L116,291.7 C108,291.7 101.5,298.2 101.5,306.2 C101.5,314.2 108,320.7 116,320.7 L336,320.7 C344,320.7 350.5,314.2 350.5,306.2 C350.5,298.2 344,291.7 336,291.7 Z"></path>
    </g>
</svg>
