<svg xmlns="http://www.w3.org/2000/svg" xmlns:xlink="http://www.w3.org/1999/xlink" version="1.1" xml:space="preserve" width="25" height="25">
    <path d="M12.5,0 C5.607,0 0,5.607 0,12.5 S5.607,25 12.5,25 S25,19.393 25,12.5 S19.393,0 12.5,0 zM6.5,14.5 c-1.105,0 -2,-0.8950000000000001 -2,-2 c0,-1.105 0.8950000000000001,-2 2,-2 c1.105,0 2,0.8950000000000001 2,2 C8.5,13.605 7.605,14.5 6.5,14.5 zM12.5,14.5 c-1.105,0 -2,-0.8950000000000001 -2,-2 c0,-1.105 0.8950000000000001,-2 2,-2 c1.105,0 2,0.8950000000000001 2,2 C14.5,13.605 13.605,14.5 12.5,14.5 zM18.5,14.5 c-1.105,0 -2,-0.8950000000000001 -2,-2 c0,-1.105 0.8950000000000001,-2 2,-2 c1.105,0 2,0.8950000000000001 2,2 C20.5,13.605 19.605,14.5 18.5,14.5 z" />
</svg>
